# xmcd
#
# Track frame offsets:
#	150
#	3731
#	23700
#	45047
#	60924
#	87322
#	103925
#	123456
#	144845
#	169176
#	190513
#	204929
#	218841
#	238369
#	261251
#	279944
#
# Disc length: 3953 seconds
#
# Revision: 1
# Processed by: cddbd v1.5.2PL0 Copyright (c) Steve Scherf et al.
# Submitted via: audiograbber 1.83.01
#
DISCID=d40f6f10
DTITLE=Riverhead Slide - After All These Years
DYEAR=2006
DGENRE=Blues
TTITLE0=After All These Years (intro)
TTITLE1=It's So Good
TTITLE2=Serious Blues
TTITLE3=Slidin' Man
TTITLE4=Love Me Like A Man
TTITLE5=Got To Move
TTITLE6=Sweet Home Chicago
TTITLE7=Black Magic Woman
TTITLE8=Hootchie Gootchie Man
TTITLE9=I'd Rather Go Blind
TTITLE10=Harp Breaker
TTITLE11=Riverhead Slidin' Blues
TTITLE12=Further On Up The Road
TTITLE13=Little Red Rooster
TTITLE14=Ramblin'
TTITLE15=After All These Years
EXTD=
EXTT0=
EXTT1=
EXTT2=
EXTT3=
EXTT4=
EXTT5=
EXTT6=
EXTT7=
EXTT8=
EXTT9=
EXTT10=
EXTT11=
EXTT12=
EXTT13=
EXTT14=
EXTT15=
PLAYORDER=
